<svg id="Слой_1" data-name="Слой 1" xmlns="http://www.w3.org/2000/svg" viewBox="0 0 192.85 81.45"><defs><style>.cls-1{fill:#999;}</style></defs><title>идеал_сайт</title><path class="cls-1" d="M161.46,9.42a52.84,52.84,0,0,1-6.69.88c-39.28.25-78.56.2-117.83.81C27.3,11.26,18.76,16,14.25,24.83,9.66,33.85,9.94,43.48,16,52A25.51,25.51,0,0,0,36.76,63c42.21.17,84.42-.18,126.62-.51a19.25,19.25,0,0,0,19.14-19.44c-.23-10.49-8.69-18.35-19.82-18.31-23.06.08-46.14.84-69.16.06-11.11-.37-17.1,11.48-12.74,19.66,2.6,4.88,6.38,6.47,11.4,6.45,14.45-.06,28.91-.18,43.37-.17a40.09,40.09,0,0,1,5.83.82V53.3a35.23,35.23,0,0,1-5.24.83c-14.65.14-29.31.27-44,.22C82.07,54.32,75.7,48.47,76,38.5c.28-10.78,5.29-16.68,15.39-16.88,24.42-.48,48.85-.48,73.28-.43,9.49,0,16.2,4.67,19.53,13.71,3.14,8.53,2,16.14-3.8,23.52-4.34,5.54-9.68,7.29-16.17,7.33q-64.18.31-128.38.7C24.34,66.54,14,58.45,10,48.12,5.63,37,8.76,23.14,16.69,15.65c6-5.64,12.82-8,20.94-8.07,39.08-.1,78.16-.35,117.24-.55l6.24,0Z"/></svg>